<?xml version="1.0" encoding="utf-8"?>
<!-- Generator: Adobe Illustrator 22.1.0, SVG Export Plug-In . SVG Version: 6.00 Build 0)  -->
<svg version="1.1" id="Calque_1" xmlns="http://www.w3.org/2000/svg" xmlns:xlink="http://www.w3.org/1999/xlink" x="0px" y="0px"
	 viewBox="0 0 470 470" style="enable-background:new 0 0 470 470;" xml:space="preserve">
<style type="text/css">
	.st0{fill:#FFFFFF;}
</style>
<path class="st0" d="M235,104.6c-72,0-130.4,58.4-130.4,130.4S163,365.4,235,365.4S365.4,307,365.4,235
	C365.3,163,307,104.7,235,104.6z M235,345.4c-61,0-110.4-49.4-110.4-110.4S174,124.6,235,124.6S345.4,174,345.4,235
	C345.3,295.9,295.9,345.3,235,345.4z"/>
<path class="st0" d="M245,61V10c0-5.5-4.5-10-10-10s-10,4.5-10,10v51c0,5.5,4.5,10,10,10S245,66.5,245,61z"/>
<path class="st0" d="M235,399c-5.5,0-10,4.5-10,10v51c0,5.5,4.5,10,10,10s10-4.5,10-10v-51C245,403.5,240.5,399,235,399z"/>
<path class="st0" d="M460,225h-51c-5.5,0-10,4.5-10,10s4.5,10,10,10h51c5.5,0,10-4.5,10-10S465.5,225,460,225z"/>
<path class="st0" d="M71,235c0-5.5-4.5-10-10-10H10c-5.5,0-10,4.5-10,10s4.5,10,10,10h51C66.5,245,71,240.5,71,235z"/>
<path class="st0" d="M365.3,118.9l35.5-35.5c3.9-3.9,3.9-10.2,0-14.1c-3.9-3.9-10.2-3.9-14.1,0l-35.5,35.5c-2.5,2.5-3.5,6.2-2.6,9.7
	c0.9,3.5,3.6,6.2,7.1,7.1C359,122.4,362.7,121.4,365.3,118.9z"/>
<path class="st0" d="M104.7,351.1l-35.5,35.5c-2.5,2.5-3.5,6.2-2.6,9.7s3.6,6.2,7.1,7.1s7.2-0.1,9.7-2.6l35.5-35.5
	c2.5-2.5,3.5-6.2,2.6-9.7c-0.9-3.5-3.6-6.2-7.1-7.1C111,347.6,107.3,348.6,104.7,351.1z"/>
<path class="st0" d="M365.3,351.1c-2.5-2.5-6.2-3.5-9.7-2.6c-3.5,0.9-6.2,3.6-7.1,7.1c-0.9,3.5,0.1,7.2,2.6,9.7l35.5,35.5
	c3.9,3.9,10.2,3.9,14.1,0c3.9-3.9,3.9-10.2,0-14.1L365.3,351.1z"/>
<path class="st0" d="M104.7,118.9c2.5,2.5,6.2,3.5,9.7,2.6c3.5-0.9,6.2-3.6,7.1-7.1c0.9-3.5-0.1-7.2-2.6-9.7L83.4,69.3
	c-3.9-3.9-10.2-3.9-14.1,0c-3.9,3.9-3.9,10.2,0,14.1L104.7,118.9z"/>
</svg>
