<?xml version="1.0" encoding="utf-8"?>
<!-- Generator: Adobe Illustrator 22.1.0, SVG Export Plug-In . SVG Version: 6.00 Build 0)  -->
<svg version="1.1" id="Calque_1" xmlns="http://www.w3.org/2000/svg" xmlns:xlink="http://www.w3.org/1999/xlink" x="0px" y="0px"
	 viewBox="0 0 400 400" style="enable-background:new 0 0 400 400;" xml:space="preserve">
<style type="text/css">
	.st0{fill:#FFFFFF;}
</style>
<path class="st0" d="M330,272.4h-20.5c-3.8,0-6.8-3-6.8-6.8s3-6.8,6.8-6.8H330c29.5,0,53.6-24,53.6-53.6c0-24.9-16.9-46.3-41.2-52.1
	c-3.3-0.8-5.5-3.8-5.2-7.2c0.2-3.2,0.4-6.5,0.4-9.8c0-67.6-55-122.6-122.6-122.6c-58.1,0-108.6,41.3-120.1,98.1
	c-0.6,3.2-3.4,5.4-6.6,5.5c-38.9,0.1-70.6,31.9-70.6,70.8c0,39.1,31.8,70.8,70.8,70.8h17.3c3.8,0,6.8,3,6.8,6.8s-3,6.8-6.8,6.8H88.4
	C41.9,272.4,4,234.6,4,188c0-44.6,34.8-81.3,78.7-84.2C97.4,43.3,152.2,0,215,0c75.1,0,136.2,61.1,136.2,136.2c0,1.8,0,3.5-0.1,5.2
	c27.4,9,46.1,34.5,46.1,63.8C397.2,242.3,367,272.4,330,272.4z"/>
<path class="st0" d="M53.5,194.8c-3.8,0-6.8-3.1-6.8-6.8c0-28.5,23.2-51.7,51.8-51.7c3.8,0,6.8,3.1,6.8,6.8c0,3.8-3,6.8-6.8,6.8
	c-21,0-38.1,17.1-38.1,38.1C60.3,191.8,57.3,194.8,53.5,194.8z"/>
<path class="st0" d="M168.4,400c-2,0-4-0.3-6-0.9c-5.2-1.6-9.5-5.1-12.1-9.9c-2.6-4.8-3.1-10.3-1.5-15.6
	c2.3-7.7,21.9-35.4,27.8-43.7c1.7-2.4,4.7-3.4,7.5-2.6c2.8,0.8,4.7,3.4,4.8,6.3c0.3,10.2,1.3,44.1-1.1,51.8
	c-1.6,5.2-5.1,9.5-9.9,12.1C175,399.2,171.7,400,168.4,400z M175.8,355c-7.2,10.7-13.1,20-14,22.6c-0.5,1.7-0.3,3.6,0.5,5.2
	c0.9,1.6,2.3,2.8,4,3.3c1.7,0.5,3.6,0.4,5.2-0.5c1.6-0.9,2.8-2.3,3.3-4C175.7,379,175.9,367.9,175.8,355z M181.4,383.5L181.4,383.5
	L181.4,383.5z"/>
<path class="st0" d="M195.7,318.3c-2,0-4-0.3-6-0.9c-5.2-1.6-9.5-5.1-12.1-9.9c-2.6-4.8-3.1-10.3-1.5-15.6
	c2.3-7.7,21.9-35.4,27.8-43.7c1.7-2.4,4.7-3.4,7.5-2.6c2.8,0.8,4.7,3.4,4.8,6.3c0.3,10.2,1.3,44.1-1.1,51.8
	c-1.6,5.2-5.1,9.5-9.9,12.1C202.3,317.5,199,318.3,195.7,318.3z M203.1,273.3c-7.2,10.7-13.1,20-14,22.6c-0.5,1.7-0.3,3.6,0.5,5.2
	c0.9,1.6,2.3,2.8,4,3.3c1.7,0.5,3.6,0.3,5.2-0.5c1.6-0.9,2.8-2.3,3.3-4C202.9,297.2,203.2,286.2,203.1,273.3z M208.7,301.8
	L208.7,301.8L208.7,301.8z"/>
<path class="st0" d="M229.7,372.8c-2,0-4-0.3-6-0.9c-5.2-1.6-9.5-5.1-12.1-9.9c-2.6-4.8-3.1-10.3-1.5-15.6
	c2.3-7.7,21.9-35.4,27.8-43.7c1.7-2.4,4.7-3.4,7.5-2.6c2.8,0.8,4.7,3.4,4.8,6.3c0.3,10.2,1.3,44.1-1.1,51.8
	c-1.6,5.2-5.1,9.5-9.9,12.1C236.3,371.9,233,372.8,229.7,372.8z M237.1,327.8c-7.2,10.7-13.1,20-14,22.6c-0.5,1.7-0.3,3.6,0.5,5.2
	c0.9,1.6,2.3,2.8,4,3.3c1.7,0.5,3.6,0.3,5.2-0.5c1.6-0.9,2.8-2.3,3.3-4C237,351.7,237.2,340.7,237.1,327.8z M242.7,356.3
	L242.7,356.3L242.7,356.3z"/>
<path class="st0" d="M257,297.8c-2,0-4-0.3-6-0.9c-5.2-1.6-9.5-5.1-12.1-9.9c-2.6-4.8-3.1-10.3-1.5-15.6
	c2.3-7.7,21.9-35.4,27.8-43.7c1.7-2.4,4.7-3.4,7.5-2.6c2.8,0.8,4.7,3.4,4.8,6.3c0.3,10.2,1.3,44.1-1.1,51.8
	c-1.6,5.2-5.1,9.5-9.9,12.1C263.6,297,260.3,297.8,257,297.8z M264.4,252.9c-7.2,10.7-13.1,20-14,22.6c-0.5,1.7-0.3,3.6,0.5,5.2
	s2.3,2.8,4,3.3c1.7,0.5,3.6,0.3,5.2-0.5c1.6-0.9,2.8-2.3,3.3-4C264.2,276.8,264.5,265.7,264.4,252.9z M270,281.4L270,281.4
	L270,281.4z"/>
<path class="st0" d="M168.4,257c-2,0-4-0.3-6-0.9c-5.2-1.6-9.5-5.1-12.1-9.9c-2.6-4.8-3.1-10.3-1.5-15.6
	c2.3-7.7,21.9-35.4,27.8-43.7c1.7-2.4,4.7-3.4,7.5-2.6c2.8,0.8,4.7,3.4,4.8,6.3c0.3,10.2,1.3,44.1-1.1,51.8
	c-1.6,5.2-5.1,9.5-9.9,12.1C175,256.2,171.7,257,168.4,257z M175.8,212c-7.2,10.7-13.1,20-14,22.6c-0.5,1.7-0.3,3.6,0.5,5.2
	c0.9,1.6,2.3,2.8,4,3.3c1.7,0.5,3.6,0.3,5.2-0.5c1.6-0.9,2.8-2.3,3.3-4C175.7,235.9,175.9,224.9,175.8,212z M181.4,240.5
	L181.4,240.5L181.4,240.5z"/>
<path class="st0" d="M134.4,331.9c-2,0-4-0.3-6-0.9c-5.2-1.6-9.5-5.1-12.1-9.9c-2.6-4.8-3.1-10.3-1.5-15.6
	c2.3-7.7,21.9-35.4,27.8-43.7c1.7-2.4,4.7-3.4,7.5-2.6c2.8,0.8,4.7,3.4,4.8,6.3c0.3,10.2,1.3,44.1-1.1,51.8
	c-1.6,5.2-5.1,9.5-9.9,12.1C141,331.1,137.7,331.9,134.4,331.9z M141.8,286.9c-7.2,10.7-13.2,20-14,22.6c-0.5,1.7-0.3,3.6,0.5,5.2
	c0.9,1.6,2.3,2.8,4,3.3c1.7,0.5,3.6,0.3,5.2-0.5c1.6-0.9,2.8-2.3,3.3-4C141.6,310.9,141.9,299.8,141.8,286.9z M147.4,315.4
	L147.4,315.4L147.4,315.4z"/>
</svg>
