<?xml version="1.0" encoding="utf-8"?>
<!-- Generator: Adobe Illustrator 22.1.0, SVG Export Plug-In . SVG Version: 6.00 Build 0)  -->
<svg version="1.1" id="Calque_1" xmlns="http://www.w3.org/2000/svg" xmlns:xlink="http://www.w3.org/1999/xlink" x="0px" y="0px"
	 viewBox="0 0 86.8 12.6" style="enable-background:new 0 0 86.8 12.6;" xml:space="preserve">
<style type="text/css">
	.st0{fill:#8338EC;}
	.st1{display:none;fill:#F5F6FA;}
	.st2{fill:#3A86FF;}
	.st3{opacity:0.2;}
	.st4{fill:#868686;}
	.st5{clip-path:url(#SVGID_2_);}
	.st6{fill:url(#SVGID_3_);}
	.st7{clip-path:url(#SVGID_5_);}
	.st8{opacity:0.4;fill:none;stroke:url(#SVGID_6_);stroke-width:1.5;stroke-miterlimit:10;}
	.st9{opacity:0.4;fill:none;stroke:url(#SVGID_7_);stroke-width:1.5;stroke-miterlimit:10;}
	.st10{opacity:0.4;fill:none;stroke:url(#SVGID_8_);stroke-width:1.5;stroke-miterlimit:10;}
	.st11{opacity:0.4;fill:none;stroke:url(#SVGID_9_);stroke-width:1.5;stroke-miterlimit:10;}
	.st12{opacity:0.4;fill:none;stroke:url(#SVGID_10_);stroke-width:1.5;stroke-miterlimit:10;}
	.st13{opacity:0.4;fill:none;stroke:url(#SVGID_11_);stroke-width:1.5;stroke-miterlimit:10;}
	.st14{opacity:0.4;fill:none;stroke:url(#SVGID_12_);stroke-width:1.5;stroke-miterlimit:10;}
	.st15{opacity:0.4;fill:none;stroke:url(#SVGID_13_);stroke-width:1.5;stroke-miterlimit:10;}
	.st16{opacity:0.4;fill:none;stroke:url(#SVGID_14_);stroke-width:1.5;stroke-miterlimit:10;}
	.st17{opacity:0.4;fill:none;stroke:url(#SVGID_15_);stroke-width:1.5;stroke-miterlimit:10;}
	.st18{opacity:0.4;fill:none;stroke:url(#SVGID_16_);stroke-width:1.5;stroke-miterlimit:10;}
	.st19{opacity:0.2;fill:url(#SVGID_17_);}
	.st20{opacity:0.2;fill:url(#SVGID_18_);}
	.st21{opacity:0.2;fill:url(#SVGID_19_);}
	.st22{opacity:0.2;fill:url(#SVGID_20_);}
	.st23{opacity:0.2;fill:url(#SVGID_21_);}
	.st24{opacity:0.2;fill:url(#SVGID_22_);}
	.st25{opacity:0.2;fill:url(#SVGID_23_);}
	.st26{opacity:0.2;fill:url(#SVGID_24_);}
	.st27{opacity:0.2;fill:url(#SVGID_25_);}
	.st28{opacity:0.2;fill:url(#SVGID_26_);}
	.st29{opacity:0.2;fill:url(#SVGID_27_);}
	.st30{opacity:0.2;fill:url(#SVGID_28_);}
	.st31{opacity:0.2;fill:url(#SVGID_29_);}
	.st32{opacity:0.2;fill:url(#SVGID_30_);}
	.st33{opacity:0.2;fill:url(#SVGID_31_);}
	.st34{opacity:0.2;fill:url(#SVGID_32_);}
	.st35{opacity:0.15;fill:url(#SVGID_33_);}
	.st36{opacity:0.35;fill:#44FFDD;}
	.st37{opacity:0.4;fill:none;stroke:url(#SVGID_34_);stroke-width:1.5;stroke-miterlimit:10;}
	.st38{opacity:0.4;fill:none;stroke:url(#SVGID_35_);stroke-width:1.5;stroke-miterlimit:10;}
	.st39{opacity:0.4;fill:none;stroke:url(#SVGID_36_);stroke-width:1.5;stroke-miterlimit:10;}
	.st40{opacity:0.4;fill:none;stroke:url(#SVGID_37_);stroke-width:1.5;stroke-miterlimit:10;}
	.st41{opacity:0.4;fill:none;stroke:url(#SVGID_38_);stroke-width:1.5;stroke-miterlimit:10;}
	.st42{fill:#4E3DEA;}
	.st43{fill:url(#SVGID_39_);}
	.st44{fill:url(#SVGID_40_);}
	.st45{fill:url(#SVGID_41_);}
	.st46{fill:url(#SVGID_42_);}
	.st47{fill:url(#SVGID_43_);}
	.st48{fill:url(#SVGID_44_);}
	.st49{fill:url(#SVGID_45_);}
	.st50{fill:url(#SVGID_46_);}
	.st51{fill:none;stroke:#868686;stroke-width:0.25;stroke-miterlimit:10;}
	.st52{fill:url(#SVGID_47_);}
	.st53{fill:url(#SVGID_48_);}
	.st54{fill:url(#SVGID_49_);}
	.st55{fill:url(#SVGID_50_);}
	.st56{fill:#1D1D1B;}
	.st57{font-family:'Poppins-SemiBold';}
	.st58{font-size:13.0866px;}
	.st59{fill:#FFBE0B;}
	.st60{fill:#FFD00D;}
	.st61{fill:url(#SVGID_51_);}
	.st62{fill:#FF006E;}
	.st63{fill:url(#SVGID_52_);}
	.st64{fill:url(#SVGID_53_);}
</style>
<rect x="896.3" y="206.6" class="st0" width="379.6" height="362.7"/>
<rect y="39.5" class="st1" width="595.3" height="802.4"/>
<g>
	<path class="st2" d="M654.5,81.4h-48.4c-0.8,0-1.5-0.7-1.5-1.5V68c0-0.8,0.7-1.5,1.5-1.5h48.4c0.8,0,1.5,0.7,1.5,1.5v11.9
		C656,80.7,655.4,81.4,654.5,81.4z"/>
</g>
<text transform="matrix(1 0 0 1 614.0049 75.6968)" style="fill:#FFFFFF; font-family:'Karla-Bold'; font-size:5.4812px;">Sauvegarder</text>
<g class="st3">
	<path class="st4" d="M761.2,81.4h-99.3c-0.8,0-1.5-0.7-1.5-1.5V68c0-0.8,0.7-1.5,1.5-1.5h99.3c0.8,0,1.5,0.7,1.5,1.5v11.9
		C762.7,80.7,762,81.4,761.2,81.4z"/>
</g>
<text transform="matrix(1 0 0 1 666.5625 75.6968)" class="st56" style="font-family:'Karla-Bold'; font-size:5.4812px;">Sauvegarder en tant que brouillon</text>
<text transform="matrix(1 0 0 1 653.667 297.0003)" style="fill:#FFFFFF; font-family:'Poppins-Medium'; font-size:10px;">intramilo</text>
<text transform="matrix(1 0 0 1 695.3662 391.527)"><tspan x="0" y="0" style="fill:#FFFFFF; font-family:'Poppins-Bold'; font-size:21.257px;">Intranet</tspan><tspan x="0" y="25.5" style="fill:#FFFFFF; font-family:'Poppins-Bold'; font-size:21.257px;">de la Mission Locale</tspan><tspan x="0" y="51" style="fill:#FFFFFF; font-family:'Poppins-Bold'; font-size:21.257px;">de l’Arrondissement</tspan><tspan x="0" y="76.5" style="fill:#FFFFFF; font-family:'Poppins-Bold'; font-size:21.257px;">de Dijon</tspan></text>
<g>
	<defs>
		
			<rect id="SVGID_1_" x="-491.3" y="-132" transform="matrix(-1 -4.489576e-11 4.489576e-11 -1 -603.051 98.625)" width="379.6" height="362.7"/>
	</defs>
	<clipPath id="SVGID_2_">
		<use xlink:href="#SVGID_1_"  style="overflow:visible;"/>
	</clipPath>
	<g class="st5">
		
			<linearGradient id="SVGID_3_" gradientUnits="userSpaceOnUse" x1="802.4167" y1="-177.7708" x2="1256.5834" y2="276.3958" gradientTransform="matrix(-1 0 0 1 810.949 0)">
			<stop  offset="0" style="stop-color:#00B9FC"/>
			<stop  offset="0.2475" style="stop-color:#238AFD"/>
			<stop  offset="0.6033" style="stop-color:#514BFE"/>
			<stop  offset="0.8642" style="stop-color:#6E24FF"/>
			<stop  offset="1" style="stop-color:#7915FF"/>
		</linearGradient>
		<polygon class="st6" points="-491.1,231 53.9,231 53.9,-132.4 -491.1,-132.4 		"/>
		<g>
			<defs>
				
					<rect id="SVGID_4_" x="-491.1" y="-132.4" transform="matrix(-1 -4.489576e-11 4.489576e-11 -1 -437.102 98.625)" width="545" height="363.3"/>
			</defs>
			<clipPath id="SVGID_5_">
				<use xlink:href="#SVGID_4_"  style="overflow:visible;"/>
			</clipPath>
			<g class="st7">
				
					<linearGradient id="SVGID_6_" gradientUnits="userSpaceOnUse" x1="1085.1061" y1="166.4928" x2="1310.1929" y2="391.5796" gradientTransform="matrix(-1 0 0 1 810.949 0)">
					<stop  offset="0" style="stop-color:#44FFDD"/>
					<stop  offset="0.7426" style="stop-color:#44FFDD;stop-opacity:0"/>
				</linearGradient>
				
					<ellipse transform="matrix(0.7071 -0.7071 0.7071 0.7071 -310.5703 -191.7107)" class="st8" cx="-386.7" cy="279" rx="158.4" ry="158.4"/>
				
					<linearGradient id="SVGID_7_" gradientUnits="userSpaceOnUse" x1="1093.2809" y1="22.5902" x2="1201.9583" y2="131.2677" gradientTransform="matrix(-1 0 0 1 810.949 0)">
					<stop  offset="0" style="stop-color:#44FFDD"/>
					<stop  offset="0.7426" style="stop-color:#44FFDD;stop-opacity:0"/>
				</linearGradient>
				
					<ellipse transform="matrix(0.7071 -0.7071 0.7071 0.7071 -153.0055 -215.5301)" class="st9" cx="-336.7" cy="76.9" rx="76.1" ry="76.1"/>
				
					<linearGradient id="SVGID_8_" gradientUnits="userSpaceOnUse" x1="1142.0865" y1="204.7946" x2="1205.2074" y2="267.9155" gradientTransform="matrix(-1 0 0 1 810.949 0)">
					<stop  offset="0" style="stop-color:#44FFDD"/>
					<stop  offset="0.7426" style="stop-color:#44FFDD;stop-opacity:0"/>
				</linearGradient>
				<circle class="st10" cx="-362.7" cy="236.4" r="43.9"/>
				<g>
					
						<linearGradient id="SVGID_9_" gradientUnits="userSpaceOnUse" x1="931.8646" y1="127.2597" x2="1064.8951" y2="260.2903" gradientTransform="matrix(-1 0 0 1 810.949 0)">
						<stop  offset="0" style="stop-color:#44FFDD"/>
						<stop  offset="0.7426" style="stop-color:#44FFDD;stop-opacity:0"/>
					</linearGradient>
					<circle class="st11" cx="-187.4" cy="193.8" r="93.3"/>
					
						<linearGradient id="SVGID_10_" gradientUnits="userSpaceOnUse" x1="936.9781" y1="132.3732" x2="1059.7817" y2="255.1768" gradientTransform="matrix(-1 0 0 1 810.949 0)">
						<stop  offset="0" style="stop-color:#44FFDD"/>
						<stop  offset="0.7426" style="stop-color:#44FFDD;stop-opacity:0"/>
					</linearGradient>
					<circle class="st12" cx="-187.4" cy="193.8" r="86.1"/>
					
						<linearGradient id="SVGID_11_" gradientUnits="userSpaceOnUse" x1="942.0916" y1="137.4867" x2="1054.6682" y2="250.0634" gradientTransform="matrix(-1 0 0 1 810.949 0)">
						<stop  offset="0" style="stop-color:#44FFDD"/>
						<stop  offset="0.7426" style="stop-color:#44FFDD;stop-opacity:0"/>
					</linearGradient>
					
						<ellipse transform="matrix(0.7071 -0.7071 0.7071 0.7071 -191.9169 -75.7783)" class="st13" cx="-187.4" cy="193.8" rx="78.9" ry="78.9"/>
					
						<linearGradient id="SVGID_12_" gradientUnits="userSpaceOnUse" x1="947.205" y1="142.6001" x2="1049.5548" y2="244.9499" gradientTransform="matrix(-1 0 0 1 810.949 0)">
						<stop  offset="0" style="stop-color:#44FFDD"/>
						<stop  offset="0.7426" style="stop-color:#44FFDD;stop-opacity:0"/>
					</linearGradient>
					<circle class="st14" cx="-187.4" cy="193.8" r="71.6"/>
				</g>
				<g>
					
						<linearGradient id="SVGID_13_" gradientUnits="userSpaceOnUse" x1="1253.1147" y1="-146.0969" x2="1386.1453" y2="-13.0663" gradientTransform="matrix(-1 0 0 1 810.949 0)">
						<stop  offset="0" style="stop-color:#44FFDD"/>
						<stop  offset="0.7426" style="stop-color:#44FFDD;stop-opacity:0"/>
					</linearGradient>
					<circle class="st15" cx="-508.7" cy="-79.6" r="93.3"/>
					
						<linearGradient id="SVGID_14_" gradientUnits="userSpaceOnUse" x1="1258.2281" y1="-140.9834" x2="1381.0319" y2="-18.1798" gradientTransform="matrix(-1 0 0 1 810.949 0)">
						<stop  offset="0" style="stop-color:#44FFDD"/>
						<stop  offset="0.7426" style="stop-color:#44FFDD;stop-opacity:0"/>
					</linearGradient>
					<circle class="st16" cx="-508.7" cy="-79.6" r="86.1"/>
					
						<linearGradient id="SVGID_15_" gradientUnits="userSpaceOnUse" x1="1263.3417" y1="-135.87" x2="1375.9183" y2="-23.2933" gradientTransform="matrix(-1 0 0 1 810.949 0)">
						<stop  offset="0" style="stop-color:#44FFDD"/>
						<stop  offset="0.7426" style="stop-color:#44FFDD;stop-opacity:0"/>
					</linearGradient>
					
						<ellipse transform="matrix(0.7071 -0.7071 0.7071 0.7071 -92.7165 -383.0007)" class="st17" cx="-508.7" cy="-79.6" rx="78.9" ry="78.9"/>
					
						<linearGradient id="SVGID_16_" gradientUnits="userSpaceOnUse" x1="1268.4551" y1="-130.7565" x2="1370.8049" y2="-28.4067" gradientTransform="matrix(-1 0 0 1 810.949 0)">
						<stop  offset="0" style="stop-color:#44FFDD"/>
						<stop  offset="0.7426" style="stop-color:#44FFDD;stop-opacity:0"/>
					</linearGradient>
					<circle class="st18" cx="-508.7" cy="-79.6" r="71.6"/>
				</g>
			</g>
			<g class="st7">
				
					<linearGradient id="SVGID_17_" gradientUnits="userSpaceOnUse" x1="780.6285" y1="206.9257" x2="856.4796" y2="282.7767" gradientTransform="matrix(-1 0 0 1 810.949 0)">
					<stop  offset="0" style="stop-color:#44FFDD"/>
					<stop  offset="0.1012" style="stop-color:#44FFDD;stop-opacity:0.8847"/>
					<stop  offset="0.8778" style="stop-color:#44FFDD;stop-opacity:0"/>
				</linearGradient>
				<circle class="st19" cx="-7.6" cy="244.9" r="53.6"/>
				
					<linearGradient id="SVGID_18_" gradientUnits="userSpaceOnUse" x1="1233.1893" y1="159.6985" x2="1278.9303" y2="205.4394" gradientTransform="matrix(-1 0 0 1 810.949 0)">
					<stop  offset="0" style="stop-color:#44FFDD"/>
					<stop  offset="0.1012" style="stop-color:#44FFDD;stop-opacity:0.8847"/>
					<stop  offset="0.8778" style="stop-color:#44FFDD;stop-opacity:0"/>
				</linearGradient>
				<circle class="st20" cx="-445.1" cy="182.6" r="32.3"/>
				
					<linearGradient id="SVGID_19_" gradientUnits="userSpaceOnUse" x1="1281.7045" y1="-117.5071" x2="1357.5554" y2="-41.6561" gradientTransform="matrix(-1 0 0 1 810.949 0)">
					<stop  offset="0" style="stop-color:#44FFDD"/>
					<stop  offset="0.1012" style="stop-color:#44FFDD;stop-opacity:0.8847"/>
					<stop  offset="0.8778" style="stop-color:#44FFDD;stop-opacity:0"/>
				</linearGradient>
				<circle class="st21" cx="-508.7" cy="-79.6" r="53.6"/>
				
					<linearGradient id="SVGID_20_" gradientUnits="userSpaceOnUse" x1="1123.1654" y1="52.4748" x2="1172.0737" y2="101.3832" gradientTransform="matrix(-1 0 0 1 810.949 0)">
					<stop  offset="0" style="stop-color:#44FFDD"/>
					<stop  offset="0.1012" style="stop-color:#44FFDD;stop-opacity:0.8847"/>
					<stop  offset="0.8778" style="stop-color:#44FFDD;stop-opacity:0"/>
				</linearGradient>
				<circle class="st22" cx="-336.7" cy="76.9" r="34.6"/>
				
					<linearGradient id="SVGID_21_" gradientUnits="userSpaceOnUse" x1="966.8458" y1="158.1147" x2="1015.7541" y2="207.023" gradientTransform="matrix(-1 0 0 1 810.949 0)">
					<stop  offset="0" style="stop-color:#44FFDD"/>
					<stop  offset="0.1012" style="stop-color:#44FFDD;stop-opacity:0.8847"/>
					<stop  offset="0.8778" style="stop-color:#44FFDD;stop-opacity:0"/>
				</linearGradient>
				<circle class="st23" cx="-180.4" cy="182.6" r="34.6"/>
				
					<linearGradient id="SVGID_22_" gradientUnits="userSpaceOnUse" x1="1137.5482" y1="15.9655" x2="1153.7389" y2="32.1561" gradientTransform="matrix(-1 0 0 1 810.949 0)">
					<stop  offset="0" style="stop-color:#44FFDD"/>
					<stop  offset="0.1012" style="stop-color:#44FFDD;stop-opacity:0.8847"/>
					<stop  offset="0.8778" style="stop-color:#44FFDD;stop-opacity:0"/>
				</linearGradient>
				<circle class="st24" cx="-334.7" cy="24.1" r="11.4"/>
				
					<linearGradient id="SVGID_23_" gradientUnits="userSpaceOnUse" x1="1102.8295" y1="166.2047" x2="1143.4358" y2="206.811" gradientTransform="matrix(-1 0 0 1 810.949 0)">
					<stop  offset="0" style="stop-color:#44FFDD"/>
					<stop  offset="0.1012" style="stop-color:#44FFDD;stop-opacity:0.8847"/>
					<stop  offset="0.8778" style="stop-color:#44FFDD;stop-opacity:0"/>
				</linearGradient>
				<circle class="st25" cx="-312.2" cy="186.5" r="28.7"/>
				
					<linearGradient id="SVGID_24_" gradientUnits="userSpaceOnUse" x1="879.9144" y1="155.5439" x2="918.9452" y2="194.5747" gradientTransform="matrix(-1 0 0 1 810.949 0)">
					<stop  offset="0" style="stop-color:#44FFDD"/>
					<stop  offset="0.1012" style="stop-color:#44FFDD;stop-opacity:0.8847"/>
					<stop  offset="0.8778" style="stop-color:#44FFDD;stop-opacity:0"/>
				</linearGradient>
				<circle class="st26" cx="-88.5" cy="175.1" r="27.6"/>
				
					<linearGradient id="SVGID_25_" gradientUnits="userSpaceOnUse" x1="1115.8066" y1="-106.1692" x2="1122.3586" y2="-99.6173" gradientTransform="matrix(-1 0 0 1 810.949 0)">
					<stop  offset="0" style="stop-color:#44FFDD"/>
					<stop  offset="0.1012" style="stop-color:#44FFDD;stop-opacity:0.8847"/>
					<stop  offset="0.8778" style="stop-color:#44FFDD;stop-opacity:0"/>
				</linearGradient>
				<path class="st27" d="M-312.8-102.9c0,2.6,2.1,4.6,4.6,4.6c2.6,0,4.6-2.1,4.6-4.6c0-2.6-2.1-4.6-4.6-4.6
					C-310.7-107.5-312.8-105.5-312.8-102.9z"/>
				
					<linearGradient id="SVGID_26_" gradientUnits="userSpaceOnUse" x1="1119.1595" y1="200.5462" x2="1276.1394" y2="357.5262" gradientTransform="matrix(-1 0 0 1 810.949 0)">
					<stop  offset="0" style="stop-color:#44FFDD"/>
					<stop  offset="0.1012" style="stop-color:#44FFDD;stop-opacity:0.8847"/>
					<stop  offset="0.8778" style="stop-color:#44FFDD;stop-opacity:0"/>
				</linearGradient>
				<circle class="st28" cx="-386.7" cy="279" r="111"/>
				
					<linearGradient id="SVGID_27_" gradientUnits="userSpaceOnUse" x1="-1053.7496" y1="2478.1606" x2="-823.1442" y2="2345.0205" gradientTransform="matrix(-0.7071 0.7071 -0.7071 -0.7071 724.5861 2506.0225)">
					<stop  offset="0" style="stop-color:#44FFDD"/>
					<stop  offset="0.1012" style="stop-color:#44FFDD;stop-opacity:0.8847"/>
					<stop  offset="0.8778" style="stop-color:#44FFDD;stop-opacity:0"/>
				</linearGradient>
				<path class="st29" d="M-481.5,231L-294,43.5c28.6-28.6,74.9-28.6,103.5,0l0,0c28.6,28.6,28.6,74.9,0,103.5l-84,84H-481.5z"/>
				
					<linearGradient id="SVGID_28_" gradientUnits="userSpaceOnUse" x1="-1082.8569" y1="2645.6846" x2="-841.816" y2="2506.5198" gradientTransform="matrix(-0.7071 0.7071 -0.7071 -0.7071 724.5861 2506.0225)">
					<stop  offset="0" style="stop-color:#44FFDD"/>
					<stop  offset="0.1012" style="stop-color:#44FFDD;stop-opacity:0.8847"/>
					<stop  offset="0.8778" style="stop-color:#44FFDD;stop-opacity:0"/>
				</linearGradient>
				<path class="st30" d="M-498.1,1l110.9-110.9c16.9-16.9,44.3-16.9,61.2,0l0,0c16.9,16.9,16.9,44.3,0,61.2l-172.1,174.8V1z"/>
				
					<linearGradient id="SVGID_29_" gradientUnits="userSpaceOnUse" x1="-1035.8508" y1="2578.9287" x2="-852.0676" y2="2472.8213" gradientTransform="matrix(-0.7071 0.7071 -0.7071 -0.7071 704.0059 2497.4978)">
					<stop  offset="0" style="stop-color:#44FFDD"/>
					<stop  offset="0.1012" style="stop-color:#44FFDD;stop-opacity:0.8847"/>
					<stop  offset="0.8778" style="stop-color:#44FFDD;stop-opacity:0"/>
				</linearGradient>
				<path class="st31" d="M-492.8,99.9l142.6-142.6c4.4-4.4,11.7-4.4,16.1,0l0,0c4.4,4.4,4.4,11.7,0,16.1l-158.7,159.5V99.9z"/>
				
					<linearGradient id="SVGID_30_" gradientUnits="userSpaceOnUse" x1="-879.0588" y1="2603.2463" x2="-764.0806" y2="2536.8635" gradientTransform="matrix(-0.7071 0.7071 -0.7071 -0.7071 787.0544 2531.8977)">
					<stop  offset="0" style="stop-color:#44FFDD"/>
					<stop  offset="0.1012" style="stop-color:#44FFDD;stop-opacity:0.8847"/>
					<stop  offset="0.8778" style="stop-color:#44FFDD;stop-opacity:0"/>
				</linearGradient>
				<path class="st32" d="M-491.1,142.6l63.2-63.2c6.6-6.6,17.2-6.6,23.8,0v0c6.6,6.6,6.6,17.2,0,23.8l-87,88V142.6z"/>
				
					<linearGradient id="SVGID_31_" gradientUnits="userSpaceOnUse" x1="-1226.3141" y1="2267.072" x2="-979.8171" y2="2124.7568" gradientTransform="matrix(-0.7071 0.7071 -0.7071 -0.7071 603.7002 2455.9497)">
					<stop  offset="0" style="stop-color:#44FFDD"/>
					<stop  offset="0.1012" style="stop-color:#44FFDD;stop-opacity:0.8847"/>
					<stop  offset="0.8778" style="stop-color:#44FFDD;stop-opacity:0"/>
				</linearGradient>
				<path class="st33" d="M-316.8,231l215.5-215.5c16.2-16.2,42.4-16.2,58.6,0l0,0c16.2,16.2,16.2,42.4,0,58.6L-199.6,231H-316.8z"
					/>
				
					<linearGradient id="SVGID_32_" gradientUnits="userSpaceOnUse" x1="-1190.4344" y1="2155.8862" x2="-972.9514" y2="2030.3223" gradientTransform="matrix(-0.7071 0.7071 -0.7071 -0.7071 488.9913 2377.6946)">
					<stop  offset="0" style="stop-color:#44FFDD"/>
					<stop  offset="0.1012" style="stop-color:#44FFDD;stop-opacity:0.8847"/>
					<stop  offset="0.8778" style="stop-color:#44FFDD;stop-opacity:0"/>
				</linearGradient>
				<path class="st34" d="M-344.9,231l196.4-196.4c8.3-8.3,21.8-8.3,30.1,0h0c8.3,8.3,8.3,21.8,0,30.1L-284.8,231H-344.9z"/>
				
					<linearGradient id="SVGID_33_" gradientUnits="userSpaceOnUse" x1="-1298.6661" y1="2182.1243" x2="-930.9278" y2="1969.8105" gradientTransform="matrix(-0.7071 0.7071 -0.7071 -0.7071 413.6545 2349.8416)">
					<stop  offset="0" style="stop-color:#44FFDD"/>
					<stop  offset="0.1012" style="stop-color:#44FFDD;stop-opacity:0.8847"/>
					<stop  offset="0.8778" style="stop-color:#44FFDD;stop-opacity:0"/>
				</linearGradient>
				<path class="st35" d="M-445.2,265.4l343.5-343.5c3-3,7.9-3,10.9,0l0,0c3,3,3,7.9,0,10.9l-332.6,332.6H-445.2z"/>
			</g>
			<g class="st7">
				<path class="st36" d="M-379.4,62.9c0,0.8,0.7,1.5,1.5,1.5c0.8,0,1.5-0.7,1.5-1.5c0-0.8-0.7-1.5-1.5-1.5
					C-378.7,61.4-379.4,62.1-379.4,62.9z"/>
				<path class="st36" d="M-367.6,143.4c0,0.8,0.7,1.5,1.5,1.5c0.8,0,1.5-0.7,1.5-1.5c0-0.8-0.7-1.5-1.5-1.5
					C-367,141.9-367.6,142.5-367.6,143.4z"/>
				<path class="st36" d="M-181.9,223.8c0,0.8,0.7,1.5,1.5,1.5c0.8,0,1.5-0.7,1.5-1.5c0-0.8-0.7-1.5-1.5-1.5
					C-181.2,222.3-181.9,223-181.9,223.8z"/>
				<path class="st36" d="M-314.9-15.7c0,0.8,0.7,1.5,1.5,1.5c0.8,0,1.5-0.7,1.5-1.5c0-0.8-0.7-1.5-1.5-1.5
					C-314.2-17.2-314.9-16.5-314.9-15.7z"/>
				<path class="st36" d="M-460.5-113.4c0,0.8,0.7,1.5,1.5,1.5c0.8,0,1.5-0.7,1.5-1.5c0-0.8-0.7-1.5-1.5-1.5
					C-459.9-114.9-460.5-114.2-460.5-113.4z"/>
				<path class="st36" d="M-479,182.6c0,0.8,0.7,1.5,1.5,1.5c0.8,0,1.5-0.7,1.5-1.5c0-0.8-0.7-1.5-1.5-1.5
					C-478.3,181.1-479,181.7-479,182.6z"/>
				<path class="st36" d="M-220.1,214.9c0,0.8,0.7,1.5,1.5,1.5s1.5-0.7,1.5-1.5c0-0.8-0.7-1.5-1.5-1.5S-220.1,214.1-220.1,214.9z"/>
				<path class="st36" d="M-379.4,152.4c0,0.8,0.7,1.5,1.5,1.5c0.8,0,1.5-0.7,1.5-1.5c0-0.8-0.7-1.5-1.5-1.5
					C-378.7,150.9-379.4,151.6-379.4,152.4z"/>
				<path class="st36" d="M-346.4,217.2c0,0.8,0.7,1.5,1.5,1.5c0.8,0,1.5-0.7,1.5-1.5s-0.7-1.5-1.5-1.5
					C-345.7,215.6-346.4,216.3-346.4,217.2z"/>
				<path class="st36" d="M-197.9,49.3c0,0.8,0.7,1.5,1.5,1.5c0.8,0,1.5-0.7,1.5-1.5s-0.7-1.5-1.5-1.5
					C-197.2,47.8-197.9,48.5-197.9,49.3z"/>
				<path class="st36" d="M-84.3,154.3c0,0.8,0.7,1.5,1.5,1.5c0.8,0,1.5-0.7,1.5-1.5c0-0.8-0.7-1.5-1.5-1.5
					C-83.6,152.8-84.3,153.5-84.3,154.3z"/>
				<path class="st36" d="M-396.5-67.9c0,0.8,0.7,1.5,1.5,1.5c0.8,0,1.5-0.7,1.5-1.5c0-0.8-0.7-1.5-1.5-1.5
					C-395.8-69.4-396.5-68.7-396.5-67.9z"/>
				<circle class="st36" cx="-283.5" cy="91.9" r="1.5"/>
				<circle class="st36" cx="-192.6" cy="-75.4" r="1.5"/>
				<path class="st36" d="M3.5,120.6c0,0.8,0.7,1.5,1.5,1.5c0.8,0,1.5-0.7,1.5-1.5c0-0.8-0.7-1.5-1.5-1.5
					C4.2,119.1,3.5,119.8,3.5,120.6z"/>
				<path class="st36" d="M-36.7-37.3c0,0.8,0.7,1.5,1.5,1.5c0.8,0,1.5-0.7,1.5-1.5c0-0.8-0.7-1.5-1.5-1.5
					C-36-38.8-36.7-38.1-36.7-37.3z"/>
			</g>
			<g class="st7">
				
					<radialGradient id="SVGID_34_" cx="1055.6445" cy="-35.7842" r="93.3106" gradientTransform="matrix(-1 0 0 1 810.949 0)" gradientUnits="userSpaceOnUse">
					<stop  offset="0" style="stop-color:#44FFDD"/>
					<stop  offset="1" style="stop-color:#44FFDD;stop-opacity:0"/>
				</radialGradient>
				<line class="st37" x1="-151.9" y1="-128.6" x2="-337.5" y2="57"/>
				
					<radialGradient id="SVGID_35_" cx="1015.535" cy="230.9792" r="93.3106" gradientTransform="matrix(-1 0 0 1 810.949 0)" gradientUnits="userSpaceOnUse">
					<stop  offset="0" style="stop-color:#44FFDD"/>
					<stop  offset="1" style="stop-color:#44FFDD;stop-opacity:0"/>
				</radialGradient>
				<line class="st38" x1="-111.8" y1="138.2" x2="-297.4" y2="323.8"/>
				
					<radialGradient id="SVGID_36_" cx="983.1617" cy="182.5689" r="93.3106" gradientTransform="matrix(-1 0 0 1 810.949 0)" gradientUnits="userSpaceOnUse">
					<stop  offset="0" style="stop-color:#44FFDD"/>
					<stop  offset="1" style="stop-color:#44FFDD;stop-opacity:0"/>
				</radialGradient>
				<line class="st39" x1="-79.4" y1="89.8" x2="-265" y2="275.3"/>
				
					<radialGradient id="SVGID_37_" cx="847.6336" cy="243.0055" r="93.3107" gradientTransform="matrix(-1 0 0 1 810.949 0)" gradientUnits="userSpaceOnUse">
					<stop  offset="0" style="stop-color:#44FFDD"/>
					<stop  offset="1" style="stop-color:#44FFDD;stop-opacity:0"/>
				</radialGradient>
				<line class="st40" x1="56.1" y1="150.2" x2="-129.5" y2="335.8"/>
				
					<radialGradient id="SVGID_38_" cx="1296.4523" cy="64.0514" r="93.3107" gradientTransform="matrix(-1 0 0 1 810.949 0)" gradientUnits="userSpaceOnUse">
					<stop  offset="0" style="stop-color:#44FFDD"/>
					<stop  offset="1" style="stop-color:#44FFDD;stop-opacity:0"/>
				</radialGradient>
				<line class="st41" x1="-392.7" y1="-28.7" x2="-578.3" y2="156.8"/>
			</g>
		</g>
	</g>
</g>
<g>
	<text transform="matrix(1 0 0 1 435.3125 -76.5697)"><tspan x="0" y="0" class="st56 st57" style="font-size:9.4032px;">Intra</tspan><tspan x="22.8" y="0" class="st56 st57" style="font-size:9.4032px;">milo</tspan></text>
</g>
<image style="overflow:visible;" width="626" height="442" xlink:href="5820FB2B.jpg"  transform="matrix(1 0 0 1 -108.6667 396.8898)">
</image>
<g>
	<g>
		<path class="st42" d="M427.4-81.5L427.4-81.5l2,4.5c0.3,0.7,0,1.6-0.8,2l0,0c-0.8,0.4-1.7,0.1-2.1-0.7l-1.1-2.4c0,0,0,0,0,0
			C426-80.1,427.4-81.5,427.4-81.5z"/>
		
			<linearGradient id="SVGID_39_" gradientUnits="userSpaceOnUse" x1="770.4222" y1="-81.3961" x2="773.5322" y2="-81.3961" gradientTransform="matrix(-1 0 0 1 1197.8627 0)">
			<stop  offset="0" style="stop-color:#674BEA"/>
			<stop  offset="0.7137" style="stop-color:#5F3FEA"/>
			<stop  offset="1" style="stop-color:#5B39EA"/>
		</linearGradient>
		<path class="st43" d="M424.3-80.8c1.4-1.9,0.9-3.8,0.9-4c0.5,0.1,0.9,0.4,1.1,0.8l1.1,2.4l0,0c0,0-1.4,1.3-1.9,3.4c0,0,0,0,0,0
			L424.3-80.8C424.3-80.7,424.3-80.8,424.3-80.8z"/>
		
			<linearGradient id="SVGID_40_" gradientUnits="userSpaceOnUse" x1="773.5086" y1="-80.737" x2="773.5086" y2="-84.7413" gradientTransform="matrix(-1 0 0 1 1197.8627 0)">
			<stop  offset="0" style="stop-color:#8338EC"/>
			<stop  offset="0.3792" style="stop-color:#7738EB"/>
			<stop  offset="1" style="stop-color:#5B39EA"/>
		</linearGradient>
		<path class="st44" d="M424.3-80.8C424.3-80.8,424.3-80.7,424.3-80.8l-0.8-1.8c-0.3-0.7,0-1.6,0.8-2h0c0.3-0.1,0.6-0.2,0.9-0.1
			C425.3-84.6,425.7-82.7,424.3-80.8z"/>
	</g>
	<g>
		<path class="st42" d="M421.9-81.3L421.9-81.3l1.9,4.3c0.3,0.7,0,1.6-0.8,2c-0.8,0.4-1.7,0.1-2.1-0.7l-0.8-1.7
			C421.7-78.4,421.9-81.3,421.9-81.3z"/>
		
			<linearGradient id="SVGID_41_" gradientUnits="userSpaceOnUse" x1="775.8799" y1="-79.1564" x2="780.3354" y2="-83.6119" gradientTransform="matrix(-1 0 0 1 1197.8627 0)">
			<stop  offset="0" style="stop-color:#8338EC"/>
			<stop  offset="0.3017" style="stop-color:#7E38EC"/>
			<stop  offset="0.6595" style="stop-color:#7038EB"/>
			<stop  offset="1" style="stop-color:#5B39EA"/>
		</linearGradient>
		<path class="st45" d="M418.6-84.6c0.8-0.4,1.7-0.1,2.1,0.7l1.2,2.6l0,0c0,0-0.2,2.9-1.7,3.9l-2.3-5.2
			C417.5-83.3,417.9-84.2,418.6-84.6z"/>
	</g>
	<g>
		
			<linearGradient id="SVGID_42_" gradientUnits="userSpaceOnUse" x1="779.823" y1="-76.756" x2="782.4224" y2="-76.756" gradientTransform="matrix(-1 0 0 1 1197.8627 0)">
			<stop  offset="0" style="stop-color:#8338EC"/>
			<stop  offset="0.3792" style="stop-color:#7738EB"/>
			<stop  offset="1" style="stop-color:#5B39EA"/>
		</linearGradient>
		<path class="st46" d="M417-78.7c0.2,0.1,0.3,0.3,0.4,0.5l0.5,1.2c0.3,0.7,0,1.6-0.8,2c-0.6,0.3-1.2,0.2-1.7-0.2c0,0,0,0,0-0.1
			C415.5-77.1,416.9-78.6,417-78.7z"/>
		<path class="st42" d="M415.1-75.7l-0.5-1.2c-0.3-0.7,0-1.6,0.8-2l0,0c0.6-0.3,1.2-0.2,1.7,0.2c-0.1,0.1-1.5,1.6-1.6,3.4
			c0,0,0,0,0,0.1C415.3-75.3,415.2-75.5,415.1-75.7z"/>
	</g>
</g>
<g>
	<text transform="matrix(1 0 0 1 158.2452 -21.6256)"><tspan x="0" y="0" class="st56 st57" style="font-size:9.5971px;">Intra</tspan><tspan x="23.2" y="0" class="st56 st57" style="font-size:9.5971px;">milo</tspan></text>
</g>
<g>
	<g>
		<path class="st42" d="M186.7-39.8L186.7-39.8l2.3,5c0.4,0.8,0,1.8-0.9,2.3h0c-0.9,0.4-1.9,0.1-2.3-0.8l-1.2-2.7c0,0,0,0,0,0
			C185-38.3,186.7-39.8,186.7-39.8z"/>
		
			<linearGradient id="SVGID_43_" gradientUnits="userSpaceOnUse" x1="1011.1992" y1="-39.7493" x2="1014.7045" y2="-39.7493" gradientTransform="matrix(-1 0 0 1 1197.8627 0)">
			<stop  offset="0" style="stop-color:#674BEA"/>
			<stop  offset="0.7137" style="stop-color:#5F3FEA"/>
			<stop  offset="1" style="stop-color:#5B39EA"/>
		</linearGradient>
		<path class="st47" d="M183.2-39c1.5-2.2,1-4.3,1-4.5c0.5,0.1,1,0.4,1.3,0.9l1.2,2.8l0,0c0,0-1.6,1.5-2.2,3.8c0,0,0,0,0,0L183.2-39
			C183.2-39,183.2-39,183.2-39z"/>
		
			<linearGradient id="SVGID_44_" gradientUnits="userSpaceOnUse" x1="1014.6779" y1="-39.0065" x2="1014.6779" y2="-43.5197" gradientTransform="matrix(-1 0 0 1 1197.8627 0)">
			<stop  offset="0" style="stop-color:#8338EC"/>
			<stop  offset="0.3792" style="stop-color:#7738EB"/>
			<stop  offset="1" style="stop-color:#5B39EA"/>
		</linearGradient>
		<path class="st48" d="M183.2-39C183.2-39,183.2-39,183.2-39l-0.9-2.1c-0.4-0.8,0-1.8,0.9-2.3l0,0c0.3-0.2,0.7-0.2,1.1-0.2
			C184.2-43.3,184.7-41.2,183.2-39z"/>
	</g>
	<g>
		<path class="st42" d="M180.4-39.6L180.4-39.6l2.2,4.8c0.4,0.8,0,1.8-0.9,2.3c-0.9,0.4-1.9,0.1-2.3-0.8l-0.9-2
			C180.2-36.4,180.4-39.6,180.4-39.6z"/>
		
			<linearGradient id="SVGID_45_" gradientUnits="userSpaceOnUse" x1="1017.3505" y1="-37.2251" x2="1022.3722" y2="-42.2468" gradientTransform="matrix(-1 0 0 1 1197.8627 0)">
			<stop  offset="0" style="stop-color:#8338EC"/>
			<stop  offset="0.3017" style="stop-color:#7E38EC"/>
			<stop  offset="0.6595" style="stop-color:#7038EB"/>
			<stop  offset="1" style="stop-color:#5B39EA"/>
		</linearGradient>
		<path class="st49" d="M176.7-43.3c0.9-0.4,1.9-0.1,2.3,0.8l1.3,3l0,0c0,0-0.2,3.2-1.9,4.4l-2.6-5.8
			C175.5-41.9,175.9-42.9,176.7-43.3z"/>
	</g>
	<g>
		
			<linearGradient id="SVGID_46_" gradientUnits="userSpaceOnUse" x1="1021.7947" y1="-34.5196" x2="1024.7245" y2="-34.5196" gradientTransform="matrix(-1 0 0 1 1197.8627 0)">
			<stop  offset="0" style="stop-color:#8338EC"/>
			<stop  offset="0.3792" style="stop-color:#7738EB"/>
			<stop  offset="1" style="stop-color:#5B39EA"/>
		</linearGradient>
		<path class="st50" d="M174.9-36.7c0.2,0.1,0.3,0.3,0.5,0.6l0.6,1.3c0.4,0.8,0,1.8-0.9,2.3c-0.7,0.3-1.4,0.2-1.9-0.2c0,0,0,0,0-0.1
			C173.3-34.9,174.8-36.6,174.9-36.7z"/>
		<path class="st42" d="M172.7-33.3l-0.6-1.3c-0.4-0.8,0-1.8,0.9-2.3l0,0c0.6-0.3,1.4-0.2,1.9,0.2c-0.1,0.1-1.7,1.8-1.8,3.9
			c0,0,0,0,0,0.1C173-32.9,172.8-33.1,172.7-33.3z"/>
	</g>
</g>
<path class="st51" d="M123.8-55.9h-20.6c-3.9,0-7.2-3.2-7.2-7.2v-20.2c0-3.9,3.2-7.2,7.2-7.2h20.6c3.9,0,7.2,3.2,7.2,7.2v20.2
	C131-59.2,127.7-55.9,123.8-55.9z"/>
<g>
	<g>
		<path class="st42" d="M121.3-75.7L121.3-75.7l2.7,6.1c0.5,1,0,2.2-1.1,2.8h0c-1.1,0.5-2.3,0.1-2.8-0.9l-1.5-3.3c0,0,0,0,0,0
			C119.3-73.9,121.3-75.7,121.3-75.7z"/>
		
			<linearGradient id="SVGID_47_" gradientUnits="userSpaceOnUse" x1="1076.6012" y1="-75.5697" x2="1080.8627" y2="-75.5697" gradientTransform="matrix(-1 0 0 1 1197.8627 0)">
			<stop  offset="0" style="stop-color:#674BEA"/>
			<stop  offset="0.7137" style="stop-color:#5F3FEA"/>
			<stop  offset="1" style="stop-color:#5B39EA"/>
		</linearGradient>
		<path class="st52" d="M117-74.7c1.9-2.6,1.3-5.3,1.2-5.4c0.7,0.1,1.2,0.5,1.5,1.1l1.5,3.3l0,0c0,0-2,1.8-2.6,4.6c0,0,0,0,0,0
			L117-74.7C117-74.7,117-74.7,117-74.7z"/>
		
			<linearGradient id="SVGID_48_" gradientUnits="userSpaceOnUse" x1="1080.8303" y1="-74.6667" x2="1080.8303" y2="-80.1534" gradientTransform="matrix(-1 0 0 1 1197.8627 0)">
			<stop  offset="0" style="stop-color:#8338EC"/>
			<stop  offset="0.3792" style="stop-color:#7738EB"/>
			<stop  offset="1" style="stop-color:#5B39EA"/>
		</linearGradient>
		<path class="st53" d="M117-74.7C117-74.7,117-74.7,117-74.7l-1.1-2.5c-0.5-1,0-2.2,1.1-2.8h0c0.4-0.2,0.9-0.3,1.3-0.2
			C118.3-79.9,118.9-77.3,117-74.7z"/>
	</g>
	<g>
		<path class="st42" d="M113.6-75.4L113.6-75.4l2.6,5.9c0.5,1,0,2.2-1.1,2.8c-1.1,0.5-2.3,0.1-2.8-0.9l-1.1-2.4
			C113.4-71.5,113.6-75.4,113.6-75.4z"/>
		
			<linearGradient id="SVGID_49_" gradientUnits="userSpaceOnUse" x1="1084.0795" y1="-72.501" x2="1090.1844" y2="-78.6059" gradientTransform="matrix(-1 0 0 1 1197.8627 0)">
			<stop  offset="0" style="stop-color:#8338EC"/>
			<stop  offset="0.3017" style="stop-color:#7E38EC"/>
			<stop  offset="0.6595" style="stop-color:#7038EB"/>
			<stop  offset="1" style="stop-color:#5B39EA"/>
		</linearGradient>
		<path class="st54" d="M109.2-79.9c1.1-0.5,2.3-0.1,2.8,0.9l1.6,3.6l0,0c0,0-0.3,3.9-2.3,5.3l-3.2-7.1
			C107.6-78.2,108.1-79.4,109.2-79.9z"/>
	</g>
	<g>
		
			<linearGradient id="SVGID_50_" gradientUnits="userSpaceOnUse" x1="1089.4824" y1="-69.2118" x2="1093.0441" y2="-69.2118" gradientTransform="matrix(-1 0 0 1 1197.8627 0)">
			<stop  offset="0" style="stop-color:#8338EC"/>
			<stop  offset="0.3792" style="stop-color:#7738EB"/>
			<stop  offset="1" style="stop-color:#5B39EA"/>
		</linearGradient>
		<path class="st55" d="M107-71.8c0.2,0.2,0.4,0.4,0.6,0.7l0.7,1.6c0.5,1,0,2.2-1.1,2.8c-0.8,0.4-1.7,0.2-2.3-0.3c0,0,0-0.1,0-0.1
			C105-69.7,106.9-71.7,107-71.8z"/>
		<path class="st42" d="M104.3-67.7l-0.7-1.6c-0.5-1,0-2.2,1.1-2.8h0c0.8-0.4,1.7-0.2,2.3,0.2c-0.1,0.1-2,2.1-2.2,4.7
			c0,0,0,0.1,0,0.1C104.6-67.2,104.4-67.4,104.3-67.7z"/>
	</g>
</g>
<text transform="matrix(1 0 0 1 373.5654 -54.8333)"><tspan x="0" y="0" style="font-family:'FiraSans-Regular'; font-size:7px;">Bienvenue sur le site intranet</tspan><tspan x="-32.2" y="8.4" style="font-family:'FiraSans-Regular'; font-size:7px;">de la Mission Locale de l’arrondissement de Dijon</tspan></text>
<g>
	<g>
		<text transform="matrix(1 0 0 1 26.4285 10.9287)"><tspan x="0" y="0" class="st56 st57 st58">Intra</tspan><tspan x="31.7" y="0" class="st56 st57 st58">milo</tspan></text>
	</g>
	<g>
		<g>
			<path class="st59" d="M16.5,4.2L16.5,4.2L19,9.8c0.4,0.9,0,2.1-1,2.5h0c-1,0.5-2.2,0.1-2.6-0.8L14,8.5c0,0,0,0,0,0
				C14.6,5.8,16.5,4.2,16.5,4.2z"/>
			<path class="st60" d="M12.5,5.1c1.7-2.4,1.2-4.9,1.1-5c0.6,0.1,1.1,0.5,1.4,1l1.4,3.1l0,0c0,0-1.8,1.7-2.4,4.2c0,0,0,0,0,0
				L12.5,5.1C12.5,5.1,12.5,5.1,12.5,5.1z"/>
			<linearGradient id="SVGID_51_" gradientUnits="userSpaceOnUse" x1="12.5535" y1="5.0861" x2="12.5535" y2="1.612049e-02">
				<stop  offset="0" style="stop-color:#F9D210"/>
				<stop  offset="0.8151" style="stop-color:#FEC20C"/>
				<stop  offset="1" style="stop-color:#FFBE0B"/>
			</linearGradient>
			<path class="st61" d="M12.5,5.1C12.5,5.1,12.5,5.1,12.5,5.1l-1.1-2.3c-0.4-0.9,0-2.1,1-2.5h0C12.9,0,13.3,0,13.7,0
				C13.7,0.2,14.3,2.6,12.5,5.1z"/>
		</g>
		<g>
			<path class="st62" d="M9.4,4.4L9.4,4.4l2.4,5.4c0.4,0.9,0,2.1-1,2.5c-1,0.5-2.2,0.1-2.6-0.8l-1-2.2C9.2,8,9.4,4.4,9.4,4.4z"/>
			
				<linearGradient id="SVGID_52_" gradientUnits="userSpaceOnUse" x1="1188.3115" y1="7.0873" x2="1193.9528" y2="1.4461" gradientTransform="matrix(-1 0 0 1 1197.8627 0)">
				<stop  offset="0" style="stop-color:#FF556E"/>
				<stop  offset="5.820489e-02" style="stop-color:#FF4D6E"/>
				<stop  offset="0.321" style="stop-color:#FF2B6E"/>
				<stop  offset="0.5721" style="stop-color:#FF136E"/>
				<stop  offset="0.8045" style="stop-color:#FF056E"/>
				<stop  offset="1" style="stop-color:#FF006E"/>
			</linearGradient>
			<path class="st63" d="M5.3,0.2c1-0.5,2.2-0.1,2.6,0.8l1.5,3.3l0,0c0,0-0.2,3.6-2.2,4.9L4.3,2.8C3.9,1.8,4.3,0.7,5.3,0.2z"/>
		</g>
		<g>
			
				<linearGradient id="SVGID_53_" gradientUnits="userSpaceOnUse" x1="1193.304" y1="10.1265" x2="1196.5952" y2="10.1265" gradientTransform="matrix(-1 0 0 1 1197.8627 0)">
				<stop  offset="0" style="stop-color:#8373EC"/>
				<stop  offset="0.2825" style="stop-color:#7B67EC"/>
				<stop  offset="0.789" style="stop-color:#6548EB"/>
				<stop  offset="1" style="stop-color:#5B39EA"/>
			</linearGradient>
			<path class="st64" d="M3.3,7.7c0.2,0.2,0.4,0.4,0.5,0.6l0.6,1.5c0.4,0.9,0,2.1-1,2.5c-0.7,0.3-1.6,0.2-2.1-0.2c0,0,0-0.1,0-0.1
				C1.4,9.7,3.2,7.8,3.3,7.7z"/>
			<path class="st42" d="M0.8,11.5L0.2,10c-0.4-0.9,0-2.1,1-2.5h0c0.7-0.3,1.5-0.2,2.1,0.2c-0.1,0.1-1.9,2-2,4.3c0,0,0,0.1,0,0.1
				C1.1,12,0.9,11.8,0.8,11.5z"/>
		</g>
	</g>
</g>
</svg>
