<?xml version="1.0" encoding="utf-8"?>
<!-- Generator: Adobe Illustrator 22.1.0, SVG Export Plug-In . SVG Version: 6.00 Build 0)  -->
<svg version="1.1" id="Capa_1" xmlns="http://www.w3.org/2000/svg" xmlns:xlink="http://www.w3.org/1999/xlink" x="0px" y="0px"
	 viewBox="0 0 480 480" style="enable-background:new 0 0 480 480;" xml:space="preserve">
<style type="text/css">
	.st0{fill:#FFFFFF;}
</style>
<g>
	<g>
		<path class="st0" d="M407.9,306.1c-8.4,7.8-15,13.9-29.3,13.9s-20.9-6.1-29.3-13.9c-9.2-8.5-19.6-18.1-40.1-18.1
			c-20.5,0-30.9,9.6-40.1,18.1c-8.4,7.8-15,13.9-29.2,13.9c-14.2,0-20.8-6.1-29.2-13.9c-9.2-8.5-19.6-18.1-40.1-18.1
			s-30.9,9.6-40.1,18.1c-8.4,7.8-15,13.9-29.2,13.9c-14.2,0-20.8-6.1-29.2-13.9C62.9,297.6,52.5,288,32,288v16
			c14.2,0,20.8,6.1,29.2,13.9c9.2,8.5,19.6,18.1,40.1,18.1s30.9-9.6,40.1-18.1c8.4-7.8,15-13.9,29.2-13.9s20.8,6.1,29.2,13.9
			c9.2,8.5,19.6,18.1,40.1,18.1c20.5,0,30.9-9.6,40.1-18.1c8.4-7.8,15-13.9,29.2-13.9c14.2,0,20.9,6.1,29.3,13.9
			c9.2,8.5,19.6,18.1,40.1,18.1s30.9-9.6,40.1-18.1c8.4-7.8,15-13.9,29.2-13.9v-16C427.5,288,417.1,297.6,407.9,306.1z"/>
	</g>
</g>
<g>
	<g>
		<path class="st0" d="M407.9,378.1c-8.4,7.8-15,13.9-29.3,13.9s-20.9-6.1-29.3-13.9c-9.2-8.5-19.6-18.1-40.1-18.1
			c-20.5,0-30.9,9.6-40.1,18.1c-8.4,7.8-15,13.9-29.2,13.9c-14.2,0-20.8-6.1-29.2-13.9c-9.2-8.5-19.6-18.1-40.1-18.1
			s-30.9,9.6-40.1,18.1c-8.4,7.8-15,13.9-29.2,13.9c-14.2,0-20.8-6.1-29.2-13.9C62.9,369.6,52.5,360,32,360v16
			c14.2,0,20.8,6.1,29.2,13.9c9.2,8.5,19.6,18.1,40.1,18.1s30.9-9.6,40.1-18.1c8.4-7.8,15-13.9,29.2-13.9s20.8,6.1,29.2,13.9
			c9.2,8.5,19.6,18.1,40.1,18.1c20.5,0,30.9-9.6,40.1-18.1c8.4-7.8,15-13.9,29.2-13.9c14.2,0,20.9,6.1,29.3,13.9
			c9.2,8.5,19.6,18.1,40.1,18.1s30.9-9.6,40.1-18.1c8.4-7.8,15-13.9,29.2-13.9v-16C427.5,360,417.1,369.6,407.9,378.1z"/>
	</g>
</g>
<g>
	<g>
		<path class="st0" d="M407.9,450.1c-8.4,7.8-15,13.9-29.3,13.9s-20.9-6.1-29.3-13.9c-9.2-8.5-19.6-18.1-40.1-18.1
			c-20.5,0-30.9,9.6-40.1,18.1c-8.4,7.8-15,13.9-29.2,13.9c-14.2,0-20.8-6.1-29.2-13.9c-9.2-8.5-19.6-18.1-40.1-18.1
			s-30.9,9.6-40.1,18.1c-8.4,7.8-15,13.9-29.2,13.9c-14.2,0-20.8-6.1-29.2-13.9C62.9,441.6,52.5,432,32,432v16
			c14.2,0,20.8,6.1,29.2,13.9c9.2,8.5,19.6,18.1,40.1,18.1s30.9-9.6,40.1-18.1c8.4-7.8,15-13.9,29.2-13.9s20.8,6.1,29.2,13.9
			c9.2,8.5,19.6,18.1,40.1,18.1c20.5,0,30.9-9.6,40.1-18.1c8.4-7.8,15-13.9,29.2-13.9c14.2,0,20.9,6.1,29.3,13.9
			c9.2,8.5,19.6,18.1,40.1,18.1s30.9-9.6,40.1-18.1c8.4-7.8,15-13.9,29.2-13.9v-16C427.5,432,417.1,441.6,407.9,450.1z"/>
	</g>
</g>
<g>
	<g>
		<path class="st0" d="M390.2,73C376,30.4,327.3,0,272,0c-51.4,0-94.8,28.8-109.9,72.2c-32.7,2-60.2,17.4-71.3,39.7
			c-0.1,0-0.2,0-0.4,0l-2.4,0c-48.5,0-88,35.9-88,80s39.5,80,88,80h280.3c60.6-2.1,111.7-49.7,111.7-104
			C480,121.5,443.3,83,390.2,73z M368,256H88c-39.7,0-72-28.7-72-64s32.3-64,72-64l2.8,0c0.9,0,1.8,0,2.6,0c0.7,0,1.4,0,2,0.1
			c3.6,0.2,6.9-1.9,8.1-5.2c7.3-20,33.9-34.3,64.6-34.7c3.5,0,6.6-2.4,7.6-5.8C187,42.6,225.7,16,272,16c49.5,0,94.3,28.4,104.3,66
			c0.8,3.1,3.4,5.4,6.5,5.9c47.8,7.3,81.2,40.2,81.2,80.1C464,213.9,419.9,254.2,368,256z"/>
	</g>
</g>
</svg>
