<?xml version="1.0" encoding="utf-8"?>
<!-- Generator: Adobe Illustrator 22.1.0, SVG Export Plug-In . SVG Version: 6.00 Build 0)  -->
<svg version="1.1" id="Capa_1" xmlns="http://www.w3.org/2000/svg" xmlns:xlink="http://www.w3.org/1999/xlink" x="0px" y="0px"
	 viewBox="0 0 512 512" style="enable-background:new 0 0 512 512;" xml:space="preserve">
<style type="text/css">
	.st0{fill:#FFFFFF;}
</style>
<g>
	<path class="st0" d="M111.5,373.7c-4.6-3.1-10.8-1.8-13.9,2.8l-40,60c-3.1,4.6-1.8,10.8,2.8,13.9c4.6,3,10.8,1.8,13.9-2.8l40-60
		C117.4,383,116.1,376.7,111.5,373.7z"/>
	<path class="st0" d="M120.5,510.3c4.6,3,10.8,1.8,13.9-2.8l20-30c3.1-4.6,1.8-10.8-2.8-13.9s-10.8-1.8-13.9,2.8l-20,30
		C114.6,501,115.9,507.3,120.5,510.3z"/>
	<path class="st0" d="M187.7,376.5l-20,30c-3.1,4.6-1.8,10.8,2.8,13.9c4.6,3,10.8,1.8,13.9-2.8l20-30c3.1-4.6,1.8-10.8-2.8-13.9
		S190.7,371.9,187.7,376.5z"/>
	<path class="st0" d="M240.5,450.3c4.6,3,10.8,1.8,13.9-2.8l40-60c3.1-4.6,1.8-10.8-2.8-13.9s-10.8-1.8-13.9,2.8l-40,60
		C234.6,441,235.9,447.3,240.5,450.3L240.5,450.3z"/>
	<path class="st0" d="M300.5,510.3c4.6,3,10.8,1.8,13.9-2.8l20-30c3.1-4.6,1.8-10.8-2.8-13.9s-10.8-1.8-13.9,2.8l-20,30
		C294.6,501,295.9,507.3,300.5,510.3z"/>
	<path class="st0" d="M367.7,376.5l-20,30c-3.1,4.6-1.8,10.8,2.8,13.9c4.6,3,10.8,1.8,13.9-2.8l20-30c3.1-4.6,1.8-10.8-2.8-13.9
		S370.7,371.9,367.7,376.5z"/>
	<path class="st0" d="M457.7,376.5l-40,60c-3.1,4.6-1.8,10.8,2.8,13.9c4.6,3,10.8,1.8,13.9-2.8l40-60c3.1-4.6,1.8-10.8-2.8-13.9
		C467,370.6,460.7,371.9,457.7,376.5z"/>
	<circle class="st0" cx="256" cy="310" r="10"/>
	<path class="st0" d="M72,320h139c5.5,0,10-4.5,10-10s-4.5-10-10-10H72c-28.2,0-52-22.9-52-50c0-28.1,25.2-50.7,53.3-50
		c6.4,0.2,11.3-5.7,10-12c-4.4-21.5,2.7-43.7,19-59.2c14.5-13.9,33.9-20.5,53.2-18.5c-1,6.5-1.5,13.1-1.5,19.7c0,5.5,4.5,10,10,10
		s10-4.5,10-10c0-61.5,52.2-110,112-110c58.5,0,108.4,45.1,113.6,100.5c-50.2,5.1-91.6,47.4-91.6,99.5c0,5.5,4.5,10,10,10
		s10-4.5,10-10c0-43.4,37.6-80,82-80s82,36.6,82,80s-37.6,80-82,80H301c-5.5,0-10,4.5-10,10s4.5,10,10,10h109
		c55.5,0,102-44.9,102-100c0-52.3-41.7-94.8-92.4-99.6C414.4,51.9,353.2,0,286,0c-56.8,0-108.1,36.8-125.7,90.7
		c-26-3.5-52.3,5-71.8,23.6c-18.4,17.6-27.8,41.8-26.3,66.3C27.8,185.5,0,214.5,0,250C0,289,33.6,320,72,320L72,320z"/>
</g>
</svg>
