<?xml version="1.0" encoding="utf-8"?>
<!-- Generator: Adobe Illustrator 22.1.0, SVG Export Plug-In . SVG Version: 6.00 Build 0)  -->
<svg version="1.1" id="Calque_1" xmlns="http://www.w3.org/2000/svg" xmlns:xlink="http://www.w3.org/1999/xlink" x="0px" y="0px"
	 viewBox="0 0 444 444" style="enable-background:new 0 0 444 444;" xml:space="preserve">
<style type="text/css">
	.st0{fill:#FFFFFF;}
</style>
<path class="st0" d="M369.3,73.5c-8.6,0-17.2,1.5-25.3,4.5C331,39.7,298,11.6,258.2,4.8c-39.9-6.7-80.2,9-105,40.9
	c-11.5-7.5-25-11.5-38.7-11.4C75,34.4,43,66.3,43,105.8c0,0.8,0,1.7,0.1,2.5C14.8,116-3.4,143.4,0.5,172.4c3.9,29,28.7,50.7,58,50.6
	h86.7c4.5,11.7,15.7,19.5,28.3,19.5c12.6,0,23.8-7.8,28.3-19.5h167.5c41.3,0,74.7-33.5,74.7-74.7C444,107,410.5,73.5,369.3,73.5
	L369.3,73.5z M173.4,228.5c-9,0-16.3-7.3-16.3-16.3s7.3-16.3,16.3-16.3s16.3,7.3,16.3,16.3C189.8,221.2,182.5,228.5,173.4,228.5z
	 M369.3,209H203.6c-1.6-15.5-14.6-27.2-30.2-27.2s-28.6,11.8-30.2,27.2H58.5c-23.3,0.2-42.7-17.7-44.5-40.9s14.7-43.9,37.7-47.3
	c3.7-0.6,6.3-4,5.9-7.8c-2.2-16.4,2.8-32.9,13.7-45.3c10.9-12.4,26.7-19.5,43.2-19.4c13.1,0,25.7,4.4,35.9,12.6
	c1.5,1.2,3.5,1.7,5.4,1.5c1.9-0.3,3.7-1.4,4.7-3c21.1-31.2,58.5-47.2,95.6-40.8s67.1,33.9,76.5,70.3c3.1,15.3,2.6,31.1-1.4,46.1
	c-1.2,3.6,0.8,7.6,4.4,8.8c3.6,1.2,7.6-0.7,8.8-4.3c4.4-15.6,5.4-31.9,2.8-47.9c7-2.8,14.4-4.2,21.9-4.2c33.6,0,60.8,27.2,60.8,60.8
	C430,181.8,402.8,209,369.3,209L369.3,209z M95.8,263c0-14.6-11.8-26.5-26.5-26.5c-14.6,0-26.5,11.8-26.5,26.5
	c0,14.6,11.8,26.5,26.4,26.5C84,289.4,95.8,277.6,95.8,263L95.8,263z M69.3,275.5c-6.9,0-12.5-5.6-12.5-12.5
	c0-6.9,5.6-12.5,12.5-12.5c6.9,0,12.5,5.6,12.5,12.5C81.8,269.9,76.2,275.5,69.3,275.5z M111.9,388.5c-14.6,0-26.5,11.9-26.5,26.5
	c0,14.6,11.9,26.5,26.5,26.5c14.6,0,26.5-11.9,26.5-26.5C138.4,400.4,126.5,388.5,111.9,388.5z M111.9,427.5
	c-6.9,0-12.5-5.6-12.5-12.5s5.6-12.5,12.5-12.5c6.9,0,12.5,5.6,12.5,12.5C124.4,421.9,118.8,427.5,111.9,427.5z M273.8,353.6
	c-14.6,0-26.5,11.9-26.5,26.5c0,14.6,11.9,26.5,26.5,26.5c14.6,0,26.5-11.9,26.5-26.5C300.2,365.4,288.4,353.6,273.8,353.6z
	 M273.8,392.5c-6.9,0-12.5-5.6-12.5-12.5c0-6.9,5.6-12.5,12.5-12.5c6.9,0,12.5,5.6,12.5,12.5C286.2,387,280.7,392.5,273.8,392.5z
	 M301.6,231.1c-17.6,0-31.9,14.3-31.9,31.9c0,17.6,14.3,31.9,31.9,31.9c17.6,0,31.9-14.3,31.9-31.9
	C333.4,245.4,319.2,231.1,301.6,231.1L301.6,231.1z M301.6,280.9c-9.9,0-17.9-8-17.9-17.9c0-9.9,8-17.9,17.9-17.9s17.9,8,17.9,17.9
	C319.5,272.9,311.5,280.9,301.6,280.9L301.6,280.9z M175,309.5c-11.6,0-21.1,9.4-21.1,21.1s9.4,21.1,21.1,21.1
	c11.6,0,21.1-9.4,21.1-21.1C196,318.9,186.6,309.5,175,309.5z M175,337.6c-3.9,0-7.1-3.2-7.1-7.1s3.2-7.1,7.1-7.1
	c3.9,0,7.1,3.2,7.1,7.1C182,334.4,178.9,337.6,175,337.6z M380.1,305c-11.6,0-21.1,9.4-21,21.1c0,11.6,9.4,21,21.1,21.1
	c11.6,0,21.1-9.4,21.1-21.1C401.2,314.4,391.8,305,380.1,305L380.1,305z M380.1,333.1c-3.9,0-7.1-3.2-7.1-7.1c0-3.9,3.2-7.1,7.1-7.1
	c3.9,0,7.1,3.2,7.1,7.1C387.2,330,384,333.1,380.1,333.1L380.1,333.1z"/>
</svg>
